<?xml version="1.0" encoding="utf-8"?>
<!-- Generator: Adobe Illustrator 25.2.0, SVG Export Plug-In . SVG Version: 6.00 Build 0)  -->
<svg version="1.1" id="Layer_1" xmlns="http://www.w3.org/2000/svg" xmlns:xlink="http://www.w3.org/1999/xlink" x="0px" y="0px"
	 viewBox="0 0 24 24" style="enable-background:new 0 0 24 24;" xml:space="preserve">
<style type="text/css">
	.st0{fill:#FFFFFF;}
</style>
<desc>Created with sketchtool.</desc>
<g id="Page-1">
	<g id="icon" transform="translate(-139.000000, -258.000000)">
		<g id="_x34_" transform="translate(83.000000, 242.000000)">
			<g id="Cricket" transform="translate(56.000000, 16.000000)">
				<g id="Path">
					<path class="st0" d="M7.8,7.7C7,8.5,5.9,9,4.7,9C4.1,9,3.4,8.9,2.8,8.6l5.8-5.7C9.5,4.5,9.1,6.5,7.8,7.7L7.8,7.7z"/>
					<path class="st0" d="M8.3,2.2l-6.1,6c-0.4-0.3-0.7-0.6-1-1l6.1-6c0.2,0.1,0.4,0.3,0.5,0.4C8,1.9,8.2,2,8.3,2.2L8.3,2.2z"/>
					<path class="st0" d="M6.6,0.9L0.8,6.6C0.2,5.3,0.3,3.7,1.1,2.5s2.2-2,3.7-2C5.4,0.5,6,0.6,6.6,0.9z"/>
					<polygon class="st0" points="8.7,16.3 10.3,17.8 23.9,4.2 19.6,0 5.9,13.6 7.5,15.1 1.6,21 1.1,20.5 0,21.7 2.1,23.7 3.3,22.6 
						2.8,22.2 					"/>
				</g>
			</g>
		</g>
	</g>
</g>
</svg>
