<?xml version="1.0" encoding="utf-8"?>
<!-- Generator: Adobe Illustrator 25.2.0, SVG Export Plug-In . SVG Version: 6.00 Build 0)  -->
<svg version="1.1" id="Layer_1" xmlns="http://www.w3.org/2000/svg" xmlns:xlink="http://www.w3.org/1999/xlink" x="0px" y="0px"
	 viewBox="0 0 24 24" style="enable-background:new 0 0 24 24;" xml:space="preserve">
<style type="text/css">
	.st0{fill:#FFFFFF;}
</style>
<desc>Created with sketchtool.</desc>
<g id="Page-1">
	<g id="icon" transform="translate(-126.000000, -130.000000)">
		<g id="_x32_" transform="translate(83.000000, 114.000000)">
			<g id="basketball_x2F_white" transform="translate(43.000000, 16.000000)">
				<g id="Path">
					<path class="st0" d="M20.4,3.5c-2.2,1-4.3,2.1-6.2,3.4c-0.7-0.8-1.5-1.5-2.3-2.2c1.1-1.3,2-2.8,2.5-4.4V0.2
						C16.8,0.8,18.8,1.9,20.4,3.5z"/>
					<path class="st0" d="M13.3,0.1C12.8,1.4,12,2.8,11,3.9c-1.2-1-2.5-2-3.9-2.9c1.5-0.7,3.2-1,4.9-1C12.4,0,12.9,0,13.3,0.1z"/>
					<path class="st0" d="M0.4,9c0.8-3.1,2.8-5.7,5.5-7.3c1.5,0.9,3,2,4.3,3.1C10.1,4.9,10.1,4.9,10,5C7.2,7.8,3.6,9.3,0.4,9z"/>
					<path class="st0" d="M13.2,7.6c-4.4,3.1-8,6.9-10.9,11.5C0.9,17.1,0,14.7,0,12c0-0.6,0-1.2,0.1-1.8c0.3,0,0.6,0.1,1,0.1
						c3.4,0,6.9-1.6,9.7-4.4C10.9,5.8,11,5.7,11,5.6C11.8,6.3,12.5,6.9,13.2,7.6z"/>
					<path class="st0" d="M23.9,10.9c-1.8,0-3.7,0.5-5.5,1.3c-1-1.6-2.2-3-3.4-4.4c1.9-1.3,4-2.4,6.3-3.4
						C22.8,6.2,23.7,8.5,23.9,10.9z"/>
					<path class="st0" d="M24,12.1c0,2.4-0.8,4.6-2,6.5c-0.9-1.9-1.8-3.7-2.9-5.3C20.7,12.5,22.4,12.1,24,12.1L24,12.1L24,12.1z"/>
					<path class="st0" d="M3.1,20.1C5.9,15.5,9.5,11.6,14,8.5c1.2,1.3,2.3,2.8,3.3,4.3c-1.1,0.7-2.2,1.5-3.2,2.5
						c-2.5,2.5-4,5.5-4.3,8.5C7.2,23.3,4.9,22,3.1,20.1z"/>
					<path class="st0" d="M15.1,16.1c0.9-0.9,1.9-1.7,3-2.3c1.2,1.8,2.2,3.8,3.1,5.9C19,22.3,15.7,24,12,24c-0.3,0-0.6,0-0.9,0
						C11.4,21.2,12.8,18.4,15.1,16.1z"/>
				</g>
			</g>
		</g>
	</g>
</g>
</svg>
