<?xml version="1.0" encoding="utf-8"?>
<!-- Generator: Adobe Illustrator 25.2.0, SVG Export Plug-In . SVG Version: 6.00 Build 0)  -->
<svg version="1.1" id="Layer_1" xmlns="http://www.w3.org/2000/svg" xmlns:xlink="http://www.w3.org/1999/xlink" x="0px" y="0px"
	 viewBox="0 0 24 15" style="enable-background:new 0 0 24 15;" xml:space="preserve">
<style type="text/css">
	.st0{fill:#FFFFFF;}
</style>
<desc>Created with sketchtool.</desc>
<g id="Page-1">
	<g id="icon" transform="translate(-138.000000, -327.000000)">
		<g id="_x35_" transform="translate(83.000000, 306.000000)">
			<g id="bike" transform="translate(55.000000, 21.000000)">
				<g id="Shape">
					<path class="st0" d="M19.1,5.2c-0.6,0-1.2,0.1-1.8,0.3c-0.4-1-0.8-2-1-2.9C16,1.1,14.7,0,13.1,0c-0.4,0-0.7,0.3-0.7,0.7
						s0.3,0.7,0.7,0.7c0.2,0,0.3,0,0.5,0.1c0.5,0.1,0.9,0.5,1.1,0.9c0,0,0,0-0.1,0.1l-0.2,0.4l-1.1,1.9H7.4L7.1,4h0.1
						c0.4,0,0.7-0.3,0.7-0.7S7.6,2.6,7.2,2.6H4.8c-0.4,0-0.7,0.3-0.7,0.7S4.4,4,4.8,4h0.8l0.6,1.5C5.8,5.4,5.3,5.3,4.8,5.3
						c-2.7,0-4.9,2.2-4.9,4.9s2.2,4.9,4.9,4.9c2.5,0,4.5-1.8,4.8-4.2h1.3c0.2,0,0.5-0.1,0.6-0.3l3.7-6.2c0.2,0.7,0.5,1.3,0.8,2
						c-1.2,0.9-1.9,2.3-1.9,3.9c0,2.7,2.2,4.9,4.9,4.9c2.7,0,4.9-2.2,4.9-4.9C24,7.4,21.8,5.2,19.1,5.2z M4.9,10.8h3.4
						c-0.3,1.6-1.7,2.8-3.4,2.8c-1.9,0-3.5-1.6-3.5-3.5S3,6.6,4.9,6.6c1.7,0,3.1,1.2,3.4,2.8H4.9c-0.4,0-0.7,0.3-0.7,0.7
						S4.5,10.8,4.9,10.8z M10.6,9.4H9.7C9.5,8.3,9,7.3,8.2,6.5V6.4L8.1,6.1h4.5L10.6,9.4z M19.1,13.6c-1.9,0-3.5-1.6-3.5-3.5
						c0-1,0.4-1.9,1.1-2.6c0.9,1.7,1.7,2.9,1.8,3c0.1,0.2,0.4,0.3,0.6,0.3c0.1,0,0.3,0,0.4-0.1c0.3-0.2,0.4-0.7,0.2-1
						c0,0-0.9-1.3-1.7-2.9c0.4-0.1,0.7-0.2,1.1-0.2c1.9,0,3.5,1.6,3.5,3.5S21,13.6,19.1,13.6z"/>
				</g>
			</g>
		</g>
	</g>
</g>
</svg>
