<?xml version="1.0" encoding="utf-8"?>
<!-- Generator: Adobe Illustrator 25.2.0, SVG Export Plug-In . SVG Version: 6.00 Build 0)  -->
<svg version="1.1" id="Layer_1" xmlns="http://www.w3.org/2000/svg" xmlns:xlink="http://www.w3.org/1999/xlink" x="0px" y="0px"
	 viewBox="0 0 24 16" style="enable-background:new 0 0 24 16;" xml:space="preserve">
<style type="text/css">
	.st0{fill:#FFFFFF;}
</style>
<desc>Created with sketchtool.</desc>
<g id="Page-1">
	<g id="icon" transform="translate(-118.000000, -646.000000)">
		<g id="_x31_0" transform="translate(83.000000, 626.000000)">
			<g id="Greyhounds" transform="translate(35.000000, 20.000000)">
				<g id="Path">
					<path class="st0" d="M24,2.3c-0.3,0.4-0.5,0.6-0.9,0.7s0,0.2-0.7,0.1c-0.6-0.1-1.5-0.4-2,0.2s-0.9,1-0.7,1.7
						c0.1,0.7,0.3,1,0.1,1.6c-0.2,0.7-0.2,0.8-0.6,1.6c-0.4,0.7-0.5,1.7-0.6,2.2c0,0.5-0.4,2.8-0.5,3.5c0,0.8,0.4,1.2,0.6,1.3
						c0.2,0,0.6,0,0.7,0.2c0,0,0.3,0.2,0.3,0.5h-2c0-0.1-0.1-0.2-0.2-0.2s-0.4-1.3-0.6-1.6c-0.1-0.1-0.2-2.5-0.2-2.9s-0.3-1-0.4-1.3
						c-0.2,0.2-3.2-0.5-3.9-0.9c-0.7-0.4-1.3-0.8-2.1-1.1C10,7.8,8.8,7.3,8.5,7.6c0,0,0.3,0.2,0,0.5C8.2,8.3,7.6,8,7.6,8
						s0.7,0.5-0.3,1.9c-1,1.5-1.8,2.3-1.9,3.7c-0.1,1.4,0.3,1.5,0.5,1.5c0.2,0.1,0.8,0.2,0.7,0.7c0,0,0,0-0.1,0.1H5.3
						c-0.2-0.1-0.4-0.3-0.6-0.3c-0.1-0.1-0.3-2.4-0.3-2.9s0.1-1,0.2-1.1C4.7,11.4,5,10.3,5,10c0,0.1-0.9,1.4-1.7,2
						c-0.8,0.6-1,0.7-1.2,1.4c-0.2,0.7-0.4,1.7-0.4,1.7s0.8,0.1,0.8,0.5S2,15.8,1.8,15.8s-0.7,0-0.7,0S1,15.4,0.8,15.4
						c0,0,0.1-2,0.5-2.8c0,0-1.2,1.3-1.4,1.2c-0.2-0.1,0.2-0.7,1.1-1.5s1.8-2.1,1.8-2.6s-0.4-3.4,1-4.6c3.5-3.2,11.7-1,12.5-2
						c0.8-0.9,2.7-2.9,3-2.8c0.1,0,0.3-0.3,1-0.3s1.2,0.2,1.2,0.4c0,0,0.2,0.1,0.2,0.3c0,0.2,0.4,0.3,0.4,0.4
						C22.3,1.2,24.2,2,24,2.3"/>
				</g>
			</g>
		</g>
	</g>
</g>
</svg>
