<?xml version="1.0" encoding="utf-8"?>
<!-- Generator: Adobe Illustrator 25.2.0, SVG Export Plug-In . SVG Version: 6.00 Build 0)  -->
<svg version="1.1" id="Layer_1" xmlns="http://www.w3.org/2000/svg" xmlns:xlink="http://www.w3.org/1999/xlink" x="0px" y="0px"
	 viewBox="0 0 24 16" style="enable-background:new 0 0 24 16;" xml:space="preserve">
<style type="text/css">
	.st0{fill:#FFFFFF;}
</style>
<desc>Created with sketchtool.</desc>
<g id="Page-1">
	<g id="icon" transform="translate(-115.000000, -710.000000)">
		<g id="_x31_1" transform="translate(83.000000, 690.000000)">
			<g id="Horse-Racing" transform="translate(32.000000, 20.000000)">
				<g>
					<path id="Shape" class="st0" d="M18.5,12.7c-0.8-0.4-1.6-0.9-2.4-1.3C16,12,16,12.5,15.9,13s-0.1,1.1-0.2,1.6
						c0,0.3-0.3,0.5-0.6,0.5c-0.3,0-0.5-0.1-0.8-0.1s-0.5-0.1-0.8-0.1c0.2,0.3,0.4,0.6,0.6,0.9c0.1,0.1,0.1,0.2,0.1,0.3
						c-0.1,0-0.2,0-0.3,0.1l0,0c-0.4,0.1-0.6-0.1-0.7-0.4c0-0.1-0.1-0.2-0.2-0.2c-0.5-0.3-0.9-0.5-1.4-0.8c0,0.4-0.2,0.4-0.5,0.2
						c-0.2-0.1-0.5-0.3-0.4-0.6c0-0.1-0.1-0.1-0.2-0.2c-0.4-0.2-0.7-0.4-1.1-0.6c-0.2-0.1-0.3-0.2-0.3-0.3c0-0.2-0.1-0.2-0.3-0.3
						c-0.5-0.2-1-0.3-1.5-0.5c-0.4-0.1-0.4-0.4-0.2-0.6c0.3-0.4,0.6-0.9,1-1.3c-0.1-0.1-0.2-0.1-0.3-0.2c-0.6-0.3-1.1-0.7-1.4-1.2
						C6.2,8.9,6.3,8.6,6.1,8.6l-4.3,1.9c-0.1-0.2-0.1-0.4-0.2-0.7L1.1,9.9L0.8,9.1L0.3,9.3C0.2,9,0.1,8.7,0,8.5c0,0,4.8-1.5,6.1-2
						c0.1,0,0.2-0.1,0.3-0.2c0.6-0.7,1.3-1.1,2.3-1c1.5,0.1,3,0.3,4.4,0.4c0,0,0.1,0,0.2,0c-0.1-0.1-0.1-0.1-0.2-0.1
						c-0.5-0.2-0.9-0.4-1.4-0.7c-0.7-0.4-0.9-1.1-0.4-1.8c0.2-0.3,0.5-0.4,0.8-0.6c0.9-0.3,1.7-0.6,2.6-0.9c0.8-0.3,1,0,1.2,0.6
						c0.2,0.5,0.4,1,0.6,1.6c0,0.1,0.1,0.2,0.2,0.2c0.4,0,0.7,0.1,1.1,0.1c0.1,0,0.3,0,0.3-0.1c0.5-0.4,1.2-1.6,2.4-1.6
						c0.1,0,0.2,0,0.3-0.1c0.1-0.1,0.2-0.2,0.3-0.4c0.1,0.2,0.1,0.4,0.1,0.6c0,0.1,0.1,0.2,0.2,0.3l2.3,2.6c0.2,0.3,0.2,0.7-0.1,1
						c-0.1,0.1-0.1,0.2-0.2,0.2c-0.3,0.3-0.5,0.3-0.9,0.2c-0.6-0.3-1.2-0.5-1.8-0.8c-0.1,0-0.1-0.1-0.2-0.1
						c-0.9,1.8-1.8,3.5-2.6,5.3c0.4,0.4,0.9,0.8,1.3,1.2c0.3,0.3,0.3,0.5,0,0.8c-0.5,0.5-0.9,1-1.4,1.5c-0.2,0.2-0.4,0.3-0.7,0.4
						c-0.3,0-0.6,0.1-0.9,0.1s-0.3-0.1-0.2-0.3c0.1-0.4,0.4-0.6,0.8-0.5c0.3,0,0.5-0.1,0.7-0.4C17.9,13.4,18.2,13.1,18.5,12.7z
						 M14.8,14.1c0-0.1,0-0.1,0-0.2c-0.1-0.9-0.2-1.7-0.3-2.6c0-0.1-0.1-0.2-0.2-0.2c-0.9-0.2-1.8-0.4-2.7-0.6
						c-0.6-0.2-1.3,0-1.3,0.7c0.4,1.7,0.6,2.1,1.5,2.3C11.8,13.5,14,14,14.8,14.1z M15.3,3.8c-0.4,0.1-0.8,0.3-1.2,0.4
						c0.3,0.2,0.5,0.3,0.7,0.4c0.4,0.2,0.6,0.5,0.5,1c0.2,0,0.3,0,0.5,0c0.1,0,0.3,0,0.3,0c0.3-0.2,0.5-0.4,0.8-0.7
						c-0.3,0-0.5,0-0.6,0c-0.4,0-0.6-0.2-0.7-0.5C15.4,4.2,15.4,4,15.3,3.8z"/>
					<path id="Path" class="st0" d="M18.5,1.3c0,0.7-0.5,1.2-1.2,1.2S16.1,2,16.1,1.3c0-0.6,0.6-1.2,1.2-1.2S18.5,0.7,18.5,1.3z"/>
				</g>
			</g>
		</g>
	</g>
</g>
</svg>
