<?xml version="1.0" encoding="utf-8"?>
<!-- Generator: Adobe Illustrator 25.2.0, SVG Export Plug-In . SVG Version: 6.00 Build 0)  -->
<svg version="1.1" id="Layer_1" xmlns="http://www.w3.org/2000/svg" xmlns:xlink="http://www.w3.org/1999/xlink" x="0px" y="0px"
	 viewBox="0 0 24 24" style="enable-background:new 0 0 24 24;" xml:space="preserve">
<style type="text/css">
	.st0{fill:#FFFFFF;}
</style>
<desc>Created with sketchtool.</desc>
<g id="Page-1">
	<g id="icon" transform="translate(-124.000000, -770.000000)">
		<g id="_x31_2" transform="translate(83.000000, 754.000000)">
			<g id="hockey" transform="translate(41.000000, 16.000000)">
				<g id="Path">
					<path class="st0" d="M23.6,1.6l-3-1.5c-0.2-0.1-0.4-0.1-0.5,0c-0.2,0.1-0.3,0.2-0.4,0.4l-8.1,16.2H3.7l0,0
						c-2,0-3.7,1.6-3.7,3.7c0,2,1.7,3.7,3.7,3.7h9c0.3,0,0.5-0.2,0.6-0.4L23.8,2.6C24.1,2.2,24,1.8,23.6,1.6L23.6,1.6z"/>
					<path class="st0" d="M6.6,12c2.9,0,5.2-1.2,5.2-3V8c-0.3,0.2-0.5,0.4-0.9,0.6c-1.2,0.6-2.7,1-4.4,1c-1.6,0-3.2-0.4-4.4-1
						C1.8,8.4,1.5,8.2,1.2,8v1C1.4,10.7,3.8,12,6.6,12L6.6,12z"/>
					<path class="st0" d="M6.6,8.2c2.9,0,5.2-1.2,5.2-3c0-1.7-2.4-3-5.2-3c-2.9,0-5.2,1.2-5.2,3S3.8,8.2,6.6,8.2z"/>
				</g>
			</g>
		</g>
	</g>
</g>
</svg>
