<?xml version="1.0" encoding="utf-8"?>
<!-- Generator: Adobe Illustrator 25.2.0, SVG Export Plug-In . SVG Version: 6.00 Build 0)  -->
<svg version="1.1" id="Layer_1" xmlns="http://www.w3.org/2000/svg" xmlns:xlink="http://www.w3.org/1999/xlink" x="0px" y="0px"
	 viewBox="0 0 24 17" style="enable-background:new 0 0 24 17;" xml:space="preserve">
<style type="text/css">
	.st0{fill:#FFFFFF;}
</style>
<desc>Created with sketchtool.</desc>
<g id="Page-1">
	<g id="icon" transform="translate(-443.000000, -262.000000)">
		<g id="_x31_6" transform="translate(393.000000, 242.000000)">
			<g id="Snooker" transform="translate(50.000000, 20.000000)">
				<g>
					<path id="Path" class="st0" d="M17.2,0.1c-2.1,0-4,1-5.2,2.4C10.7,1,8.9,0.1,6.8,0.1C3,0.1,0,3.2,0,6.9c0,3.1,2.1,5.8,5,6.5
						c-0.6-1-0.9-2.2-0.9-3.4c0-4.1,3.3-7.3,7.3-7.3c0.1,0,0.3,0,0.4,0c0.2,0,0.3,0,0.4,0.1c3.6,0.4,6.5,3.5,6.5,7.3
						c0,1.3-0.4,2.5-1,3.6c3.5-0.3,6.3-3.3,6.3-6.8C24,3.2,21,0.1,17.2,0.1z"/>
					<path id="Shape" class="st0" d="M11.4,3.3c-3.8,0-6.8,3-6.8,6.8s3,6.8,6.8,6.8s6.8-3.1,6.8-6.8S15.1,3.3,11.4,3.3z M9.9,11.7
						C8.3,11.7,7,10.4,7,8.8s1.3-2.9,2.9-2.9s2.9,1.3,2.9,2.9C12.7,10.4,11.5,11.7,9.9,11.7z"/>
					<path id="Shape_1_" class="st0" d="M10.2,8.6c0.3-0.2,0.4-0.4,0.4-0.6s-0.1-0.5-0.3-0.6c-0.2-0.1-0.5-0.3-0.8-0.3
						S8.9,7.2,8.7,7.4C8.5,7.5,8.4,7.8,8.4,8s0.1,0.5,0.4,0.6C8.5,8.8,8.3,9.1,8.3,9.5c0,0.3,0.1,0.5,0.4,0.7s0.5,0.3,0.9,0.3
						s0.6-0.1,0.9-0.3c0.3-0.2,0.4-0.5,0.4-0.7C10.7,9.1,10.6,8.9,10.2,8.6z M9.1,7.7c0.1-0.1,0.3-0.2,0.4-0.2s0.3,0.1,0.4,0.2
						s0.2,0.2,0.2,0.3c0,0.2-0.1,0.3-0.2,0.4S9.6,8.5,9.5,8.5s-0.3,0-0.4-0.1S8.9,8.2,8.9,8C8.9,7.9,9,7.8,9.1,7.7z M10,9.9
						C9.8,10,9.7,10,9.5,10S9.2,10,9,9.9C8.9,9.8,8.8,9.6,8.8,9.5s0-0.3,0.2-0.4S9.3,9,9.5,9S9.9,9,10,9.1s0.2,0.3,0.2,0.4
						S10.1,9.8,10,9.9z"/>
				</g>
			</g>
		</g>
	</g>
</g>
</svg>
