<?xml version="1.0" encoding="utf-8"?>
<!-- Generator: Adobe Illustrator 25.2.0, SVG Export Plug-In . SVG Version: 6.00 Build 0)  -->
<svg version="1.1" id="Layer_1" xmlns="http://www.w3.org/2000/svg" xmlns:xlink="http://www.w3.org/1999/xlink" x="0px" y="0px"
	 viewBox="0 0 24 24" style="enable-background:new 0 0 24 24;" xml:space="preserve">
<style type="text/css">
	.st0{fill:#FFFFFF;}
</style>
<desc>Created with sketchtool.</desc>
<g id="Page-1">
	<g id="Sport" transform="translate(-1194.000000, -481.000000)">
		<g id="upcoming" transform="translate(1178.000000, 411.000000)">
			<g id="name" transform="translate(0.000000, 54.000000)">
				<g id="soccer_x2F_white" transform="translate(16.000000, 16.000000)">
					<path id="Shape" class="st0" d="M12,0C5.4,0,0,5.4,0,12s5.4,12,12,12s12-5.4,12-12c0-3.2-1.2-6.2-3.5-8.5S15.2,0,12,0z M8,1.7
						L11.6,3v3.8L7.1,10L3.4,8.8L3.3,4.9C4.6,3.6,6.2,2.4,8,1.7z M2.7,18c-1-1.6-1.7-3.4-1.8-5.4l2.4-3.1L7,10.7l1.7,5.2L6.4,19
						L2.7,18z M14.8,22.7c-0.9,0.2-1.9,0.4-2.8,0.4c-1,0-1.9-0.1-2.8-0.4L7,19.5l2.3-3.1h5.5l2.3,3.1L14.8,22.7z M23,12.6
						c-0.1,2-0.7,3.8-1.8,5.4l-3.7,1.1L15.2,16l1.7-5.2l3.7-1.2L23,12.6z M20.5,8.9l-3.7,1.2l-4.5-3.2V3L16,1.7
						c1.4,0.5,2.7,1.4,3.8,2.5c0.3,0.3,0.5,0.5,0.8,0.8L20.5,8.9z"/>
				</g>
			</g>
		</g>
	</g>
</g>
</svg>
