<?xml version="1.0" encoding="utf-8"?>
<!-- Generator: Adobe Illustrator 25.2.0, SVG Export Plug-In . SVG Version: 6.00 Build 0)  -->
<svg version="1.1" id="Layer_1" xmlns="http://www.w3.org/2000/svg" xmlns:xlink="http://www.w3.org/1999/xlink" x="0px" y="0px"
	 viewBox="0 0 24 24" style="enable-background:new 0 0 24 24;" xml:space="preserve">
<style type="text/css">
	.st0{fill:#FFFFFF;}
</style>
<desc>Created with sketchtool.</desc>
<g id="Page-1">
	<g id="icon" transform="translate(-450.000000, -450.000000)">
		<g id="_x31_9" transform="translate(393.000000, 434.000000)">
			<g id="tennis_x2F_white" transform="translate(57.000000, 16.000000)">
				<g id="tennis">
					<path id="Path" class="st0" d="M20.5,3.5c-2.4-2.4-5.6-3.6-8.8-3.5l4.9,4.9l0,0c3.2,3.2,3.2,8.5,0,11.7s-8.5,3.2-11.7,0l0,0
						L0,11.7c-0.1,3.2,1.1,6.4,3.5,8.8c4.7,4.7,12.3,4.7,17,0S25.2,8.2,20.5,3.5z"/>
					<path id="Path_1_" class="st0" d="M6.2,15.3c1.2,1.2,2.8,1.9,4.5,1.9s3.3-0.7,4.5-1.9c1.2-1.2,1.9-2.8,1.9-4.5
						s-0.7-3.3-1.9-4.5l-0.1-0.1L9.3,0.4C7.1,0.9,5.1,2,3.4,3.6C1.7,5.3,0.6,7.3,0.2,9.5L6.2,15.3L6.2,15.3z"/>
				</g>
			</g>
		</g>
	</g>
</g>
</svg>
