<?xml version="1.0" encoding="utf-8"?>
<!-- Generator: Adobe Illustrator 25.2.0, SVG Export Plug-In . SVG Version: 6.00 Build 0)  -->
<svg version="1.1" id="Layer_1" xmlns="http://www.w3.org/2000/svg" xmlns:xlink="http://www.w3.org/1999/xlink" x="0px" y="0px"
	 viewBox="0 0 24 24" style="enable-background:new 0 0 24 24;" xml:space="preserve">
<style type="text/css">
	.st0{fill:#FFFFFF;}
</style>
<desc>Created with sketchtool.</desc>
<g id="Page-1">
	<g id="icon" transform="translate(-123.000000, -1154.000000)">
		<g id="_x31_2-copy-6" transform="translate(83.000000, 1138.000000)">
			<g id="badminton_x2F_white" transform="translate(40.000000, 16.000000)">
				<g id="Path">
					<path class="st0" d="M23.4,10.8L19.9,10L9.4,18l-1.1-1.1L19,8.7l-0.3-2.8c0-0.3-0.3-0.6-0.7-0.7l-3-0.3L6.9,15.6l-1.1-1.1
						l8.1-10.8l-0.3-3.1c0-0.2-0.1-0.4-0.3-0.5C13.1,0,12.9-0.1,12.7,0L8.5,0.8C8.2,0.8,8,1,7.9,1.3L3.7,13.8L2.5,15l6.4,6.4
						l1.2-1.2L22.6,16c0.3-0.1,0.4-0.3,0.5-0.6l0.8-3.7C24.1,11.3,23.8,10.9,23.4,10.8z"/>
					<path class="st0" d="M1.5,16.1l-0.2,0.2c-1.8,1.8-1.8,4.6,0,6.4c0.8,0.9,2,1.3,3.2,1.3s2.3-0.5,3.2-1.3l0.2-0.2L1.5,16.1z"/>
				</g>
			</g>
		</g>
	</g>
</g>
</svg>
