<?xml version="1.0" encoding="utf-8"?>
<!-- Generator: Adobe Illustrator 25.2.0, SVG Export Plug-In . SVG Version: 6.00 Build 0)  -->
<svg version="1.1" id="Layer_1" xmlns="http://www.w3.org/2000/svg" xmlns:xlink="http://www.w3.org/1999/xlink" x="0px" y="0px"
	 viewBox="0 0 24 24" style="enable-background:new 0 0 24 24;" xml:space="preserve">
<style type="text/css">
	.st0{fill:#FFFFFF;}
</style>
<desc>Created with sketchtool.</desc>
<g id="Page-1">
	<g id="icon" transform="translate(-116.000000, -194.000000)">
		<g id="_x33_" transform="translate(83.000000, 178.000000)">
			<g id="boxing" transform="translate(33.000000, 16.000000)">
				<g id="Path">
					<path class="st0" d="M4.7,21.1v2.2C4.7,23.7,5,24,5.4,24h9.4c0.4,0,0.7-0.3,0.7-0.7v-2.2H4.7z"/>
					<path class="st0" d="M18.6,0H13c-1.4,0-2.7,0.6-3.7,1.5H13c3.8,0,6.8,3,6.8,6.8V9c0,0.2,0,0.4,0,0.7h0.7c1.9,0,3.5-1.6,3.5-3.5
						V5.5C24,2.4,21.6,0,18.6,0z"/>
					<path class="st0" d="M8.9,8.5c1.8,0,3.3,1.5,3.3,3.3c0,0.2,0,0.5-0.1,0.7h2.7c1.9,0,3.5-1.6,3.5-3.5V8.3c0-3-2.4-5.4-5.4-5.4
						H7.3c-3,0-5.4,2.4-5.4,5.4V9c0.7-0.3,1.4-0.5,2.2-0.5h0.1H8.9z"/>
					<path class="st0" d="M10.1,17.4c-0.8,0-1.4,0.6-1.4,1.4v0.9h2.8v-0.9C11.5,18,10.9,17.4,10.1,17.4z"/>
					<path class="st0" d="M20.5,11h-0.7v1.8c0,1.4-0.2,2.7-0.6,4h1.3h1.4c1.4-2,2.1-4.4,2.1-6.9V9.5C23.1,10.4,21.9,11,20.5,11z"/>
					<path class="st0" d="M20.5,18.3h-1.8c-0.3,0.8-0.7,1.5-1.2,2.2l-0.4,0.6h3.5c0.4,0,0.7-0.3,0.7-0.7v-2.2h-0.8V18.3z"/>
					<path class="st0" d="M14.8,13.9h-3.4C10.8,14.6,10,15,9,15.1c-0.1,0-0.2,0-0.3,0H5.2c-0.4,0-0.7-0.3-0.7-0.7
						c0-0.4,0.3-0.7,0.7-0.7H9c1,0,1.9-0.8,1.9-1.9S10.1,9.9,9,9.9H4.2l0,0c-2.2,0-4,1.6-4.1,3.8c-0.1,1.1,0.3,2.2,1.1,3l2.5,2.8
						c0.1,0.1,0.3,0.2,0.5,0.2h3.2v-0.9c0-1.6,1.3-2.8,2.8-2.8s2.8,1.3,2.8,2.8v0.9h3.3c1.4-2,2.1-4.4,2.1-6.9v-0.4
						C17.5,13.3,16.2,13.9,14.8,13.9z"/>
				</g>
			</g>
		</g>
	</g>
</g>
</svg>
