<?xml version="1.0" encoding="utf-8"?>
<!-- Generator: Adobe Illustrator 25.2.0, SVG Export Plug-In . SVG Version: 6.00 Build 0)  -->
<svg version="1.1" id="Layer_1" xmlns="http://www.w3.org/2000/svg" xmlns:xlink="http://www.w3.org/1999/xlink" x="0px" y="0px"
	 viewBox="0 0 24 23" style="enable-background:new 0 0 24 23;" xml:space="preserve">
<style type="text/css">
	.st0{fill:#FFFFFF;}
</style>
<desc>Created with sketchtool.</desc>
<g id="Page-1">
	<g id="icon" transform="translate(-447.000000, -899.000000)">
		<g id="_x31_2-copy-9" transform="translate(393.000000, 882.000000)">
			<g id="Hockey_x2F_white" transform="translate(54.000000, 17.000000)">
				<g id="Shape" transform="translate(0.000000, 0.000000)">
					<path class="st0" d="M23.2,0.3L23.2,0.3c-0.4-0.4-1.1-0.3-1.5,0.1l0,0l0,0L5.8,17.8c-0.2,0.2-0.5,0.3-0.7,0.3
						c-0.3,0-0.6-0.1-0.8-0.3c-0.4-0.4-0.4-1.1,0-1.6l0.3-0.3c0.3-0.3,0.3-0.8,0-1.1l-0.1-0.1l-1.3-0.9c-0.3-0.2-0.7-0.2-0.9,0.1
						l0,0l0,0l-0.8,0.8c-1.8,1.8-1.8,4.7,0,6.5c0.9,0.9,2,1.4,3.3,1.4h0.1c1.1,0,2.2-0.4,3-1.2C8,21.3,8,21.3,8.1,21.2
						c4-4.2,13.6-17,15.5-19.6C23.7,1.3,23.6,0.6,23.2,0.3z M6.1,20.9c-0.5,0.2-1,0.3-1.5,0.3s-1-0.1-1.5-0.3
						c-0.2-0.1-0.3-0.3-0.2-0.5c0.1-0.2,0.3-0.3,0.5-0.2c0.8,0.3,1.6,0.3,2.4,0c0.2-0.1,0.4,0,0.5,0.2C6.4,20.5,6.3,20.8,6.1,20.9
						L6.1,20.9z M10.5,12.7L10.5,12.7L10.5,12.7L10.5,12.7z M8.9,14.4L8.9,14.4C9,14.3,9,14.3,8.9,14.4L8.9,14.4z M11,16.5l-1.7-1.4
						l0.5-0.6l1.6,1.3L11,16.5z M12.4,14.7l-1.6-1.3l0.5-0.6l1.5,1.3L12.4,14.7z M20.6,4.1L20.6,4.1l-0.7-0.6l0.5-0.6l0.7,0.6
						L20.6,4.1z M21.7,2.7l-0.6-0.5l0.5-0.6l0.5,0.5L21.7,2.7z"/>
					<path class="st0" d="M20.7,16.4c-1.7,0-3.2,1.4-3.2,3.2s1.4,3.2,3.2,3.2s3.2-1.4,3.2-3.2S22.4,16.4,20.7,16.4z M21,18.7
						c-0.5,0-0.9,0.3-1.1,0.7c-0.1,0.2-0.3,0.2-0.5,0.1s-0.2-0.3-0.1-0.5c0.3-0.7,1-1.1,1.8-1.1c0.2,0,0.4,0.2,0.4,0.4
						C21.4,18.6,21.2,18.7,21,18.7z"/>
				</g>
			</g>
		</g>
	</g>
</g>
</svg>
