<?xml version="1.0" encoding="utf-8"?>
<!-- Generator: Adobe Illustrator 25.2.0, SVG Export Plug-In . SVG Version: 6.00 Build 0)  -->
<svg version="1.1" id="Layer_1" xmlns="http://www.w3.org/2000/svg" xmlns:xlink="http://www.w3.org/1999/xlink" x="0px" y="0px"
	 viewBox="0 0 24 24" style="enable-background:new 0 0 24 24;" xml:space="preserve">
<style type="text/css">
	.st0{fill:#FFFFFF;}
</style>
<desc>Created with sketchtool.</desc>
<g id="Page-1">
	<g id="icon" transform="translate(-426.000000, -194.000000)">
		<g id="_x31_5" transform="translate(393.000000, 178.000000)">
			<g id="rugby" transform="translate(33.000000, 16.000000)">
				<g>
					<path id="Path" class="st0" d="M0.4,15c0,0.1-0.1,0.3-0.1,0.4c-0.6,3.3-0.3,6.1,0.9,7.3c0.8,0.8,2.4,1.2,4.3,1.2
						c0.9,0,1.9-0.1,3-0.3c0.1,0,0.3-0.1,0.4-0.1L0.4,15z"/>
					<path id="Path_1_" class="st0" d="M22.8,1.2c-1.2-1.2-4.1-1.6-7.3-0.9c-0.1,0-0.3,0.1-0.4,0.1L23.7,9c0-0.1,0.1-0.3,0.1-0.4
						C24.3,5.3,24,2.4,22.8,1.2z"/>
					<path id="Shape" class="st0" d="M13.4,0.8c-2.2,0.7-5.5,2.4-8,4.9s-3.9,5.4-4.5,7.7l9.8,9.8c2.2-0.7,5.1-2,7.7-4.5
						c2.5-2.5,4.2-5.8,4.9-8L13.4,0.8z M17.6,11.3c-0.1,0.1-0.3,0.2-0.5,0.2s-0.4-0.1-0.5-0.2l-1.5-1.5l-1,1l1.5,1.5
						c0.3,0.3,0.3,0.7,0,1c-0.1,0.1-0.3,0.2-0.5,0.2s-0.4-0.1-0.5-0.2l-1.5-1.5l-1.4,1.4l1.5,1.5c0.3,0.3,0.3,0.7,0,1
						c-0.1,0.1-0.3,0.2-0.5,0.2s-0.4-0.1-0.5-0.2l-1.5-1.5l-1,1l1.5,1.5c0.3,0.3,0.3,0.7,0,1c-0.1,0.1-0.3,0.2-0.5,0.2
						s-0.4-0.1-0.5-0.2l-1.5-1.5l-1.2,1.2c-0.1,0.1-0.3,0.2-0.5,0.2s-0.4-0.1-0.5-0.2c-0.3-0.3-0.3-0.7,0-1l1.2-1.2l-1.5-1.5
						c-0.3-0.3-0.3-0.7,0-1s0.7-0.3,1,0l1.5,1.5l1-1l-1.5-1.5c-0.3-0.3-0.3-0.7,0-1s0.7-0.3,1,0l1.5,1.5l1.4-1.4l-1.5-1.5
						c-0.3-0.3-0.3-0.7,0-1s0.7-0.3,1,0l1.5,1.5l1-1l-1.5-1.5c-0.3-0.3-0.3-0.7,0-1s0.7-0.3,1,0l1.5,1.5l1.2-1.2
						c0.3-0.3,0.7-0.3,1,0s0.3,0.7,0,1l-1.2,1.2l1.5,1.5C17.9,10.6,17.9,11,17.6,11.3z"/>
				</g>
			</g>
		</g>
	</g>
</g>
</svg>
