<?xml version="1.0" encoding="utf-8"?>
<!-- Generator: Adobe Illustrator 25.2.0, SVG Export Plug-In . SVG Version: 6.00 Build 0)  -->
<svg version="1.1" id="Layer_1" xmlns="http://www.w3.org/2000/svg" xmlns:xlink="http://www.w3.org/1999/xlink" x="0px" y="0px"
	 viewBox="0 0 24 23" style="enable-background:new 0 0 24 23;" xml:space="preserve">
<style type="text/css">
	.st0{fill:#FFFFFF;}
</style>
<desc>Created with sketchtool.</desc>
<g id="Page-1">
	<g id="icon" transform="translate(-427.000000, -386.000000)">
		<g id="_x31_8" transform="translate(393.000000, 370.000000)">
			<g id="table-tennis" transform="translate(34.000000, 16.000000)">
				<g>
					<path id="Path" class="st0" d="M10,18l7.8-7.8c0-2.5-1-5.1-3-7.1c-3.7-3.7-9.3-4-12.5-0.8C-1,5.6-0.6,11.3,3,15
						C5,17,7.6,18,10,18z"/>
					<path id="Path_1_" class="st0" d="M10.9,17.9c0,0,2.4-1.7,4.4-0.3c2.1,1.4,4.9,5.3,4.9,5.3s0.5-0.1,1.4-1s1-1.4,1-1.4
						s-3.9-2.9-5.2-5c-1.3-2.1,0.3-4.5,0.3-4.5l0,0L10.9,17.9L10.9,17.9z"/>
					<ellipse id="Oval" class="st0" cx="21.8" cy="12.9" rx="2.1" ry="2.1"/>
				</g>
			</g>
		</g>
	</g>
</g>
</svg>
