<?xml version="1.0" encoding="utf-8"?>
<!-- Generator: Adobe Illustrator 25.2.0, SVG Export Plug-In . SVG Version: 6.00 Build 0)  -->
<svg version="1.1" id="Layer_1" xmlns="http://www.w3.org/2000/svg" xmlns:xlink="http://www.w3.org/1999/xlink" x="0px" y="0px"
	 viewBox="0 0 24 24" style="enable-background:new 0 0 24 24;" xml:space="preserve">
<style type="text/css">
	.st0{fill:#FFFFFF;}
</style>
<desc>Created with sketchtool.</desc>
<g id="Page-1">
	<g id="icon" transform="translate(-439.000000, -514.000000)">
		<g id="_x32_0" transform="translate(393.000000, 498.000000)">
			<g id="Volleyball" transform="translate(46.000000, 16.000000)">
				<g id="Path">
					<path class="st0" d="M12.6,12.5c-0.4,5.6-3.4,8.9-5.5,10.5c1,0.4,2,0.8,3.1,0.9l0.5-0.4c2.7-2.2,6.1-6.2,6.8-12.4
						C16,11.2,14.4,11.6,12.6,12.5z"/>
					<path class="st0" d="M23.5,8.7l-0.6-0.4c-2.2-1.3-7.8-4-14.7-1.1c0.9,1.4,2.1,2.7,3.9,3.9c5-2.4,9.4-1.5,11.9-0.5
						C23.8,9.9,23.7,9.3,23.5,8.7z"/>
					<path class="st0" d="M12,0C9.9,0,7.9,0.5,6.2,1.5v0.1c0.1,1.3,0.5,2.8,1.2,4.3C14,3.1,19.7,5,22.6,6.5C20.6,2.6,16.6,0,12,0z"
						/>
					<path class="st0" d="M4.8,2.4C3.8,3.1,3,4,2.3,5l0.1,0.4c0.5,3.5,2.3,8.5,7.2,12.4c0.8-1.5,1.4-3.3,1.6-5.6
						C6.8,9.4,5.3,5.4,4.8,2.4z"/>
					<path class="st0" d="M1.1,7C0.4,8.5,0,10.2,0,12c0,4.3,2.3,8.1,5.6,10.2l0.1-0.1c0.8-0.6,1.9-1.6,2.9-3
						C3.9,15.3,1.9,10.7,1.1,7z"/>
					<path class="st0" d="M23.8,12.2c-1.3-0.6-2.9-1-4.7-1.1c-0.7,6.3-3.8,10.4-6.6,13c6.3-0.2,11.4-5.4,11.5-11.7L23.8,12.2z"/>
				</g>
			</g>
		</g>
	</g>
</g>
</svg>
